# Tiled2Unity generated file. Do not modify by hand.
# Wavefront file for 'Boss-Area_mesh_0002.obj'

# Vertices (Count = 344)
v -256 -32 0
v -272 -32 0
v -272 -16 0
v -256 -16 0
v -240 -32 0
v -256 -32 0
v -256 -16 0
v -240 -16 0
v -224 -32 0
v -240 -32 0
v -240 -16 0
v -224 -16 0
v -208 -32 0
v -224 -32 0
v -224 -16 0
v -208 -16 0
v -192 -32 0
v -208 -32 0
v -208 -16 0
v -192 -16 0
v -176 -32 0
v -192 -32 0
v -192 -16 0
v -176 -16 0
v -160 -32 0
v -176 -32 0
v -176 -16 0
v -160 -16 0
v -144 -32 0
v -160 -32 0
v -160 -16 0
v -144 -16 0
v -128 -32 0
v -144 -32 0
v -144 -16 0
v -128 -16 0
v -112 -32 0
v -128 -32 0
v -128 -16 0
v -112 -16 0
v -96 -32 0
v -112 -32 0
v -112 -16 0
v -96 -16 0
v -256 -48 0
v -272 -48 0
v -272 -32 0
v -256 -32 0
v -240 -48 0
v -256 -48 0
v -256 -32 0
v -240 -32 0
v -224 -48 0
v -240 -48 0
v -240 -32 0
v -224 -32 0
v -208 -48 0
v -224 -48 0
v -224 -32 0
v -208 -32 0
v -192 -48 0
v -208 -48 0
v -208 -32 0
v -192 -32 0
v -176 -48 0
v -192 -48 0
v -192 -32 0
v -176 -32 0
v -160 -48 0
v -176 -48 0
v -176 -32 0
v -160 -32 0
v -144 -48 0
v -160 -48 0
v -160 -32 0
v -144 -32 0
v -128 -48 0
v -144 -48 0
v -144 -32 0
v -128 -32 0
v -112 -48 0
v -128 -48 0
v -128 -32 0
v -112 -32 0
v -96 -48 0
v -112 -48 0
v -112 -32 0
v -96 -32 0
v -256 -64 0
v -272 -64 0
v -272 -48 0
v -256 -48 0
v -240 -64 0
v -256 -64 0
v -256 -48 0
v -240 -48 0
v -224 -64 0
v -240 -64 0
v -240 -48 0
v -224 -48 0
v -208 -64 0
v -224 -64 0
v -224 -48 0
v -208 -48 0
v -192 -64 0
v -208 -64 0
v -208 -48 0
v -192 -48 0
v -176 -64 0
v -192 -64 0
v -192 -48 0
v -176 -48 0
v -160 -64 0
v -176 -64 0
v -176 -48 0
v -160 -48 0
v -144 -64 0
v -160 -64 0
v -160 -48 0
v -144 -48 0
v -128 -64 0
v -144 -64 0
v -144 -48 0
v -128 -48 0
v -112 -64 0
v -128 -64 0
v -128 -48 0
v -112 -48 0
v -96 -64 0
v -112 -64 0
v -112 -48 0
v -96 -48 0
v -256 -80 0
v -272 -80 0
v -272 -64 0
v -256 -64 0
v -240 -80 0
v -256 -80 0
v -256 -64 0
v -240 -64 0
v -224 -80 0
v -240 -80 0
v -240 -64 0
v -224 -64 0
v -208 -80 0
v -224 -80 0
v -224 -64 0
v -208 -64 0
v -192 -80 0
v -208 -80 0
v -208 -64 0
v -192 -64 0
v -176 -80 0
v -192 -80 0
v -192 -64 0
v -176 -64 0
v -160 -80 0
v -176 -80 0
v -176 -64 0
v -160 -64 0
v -144 -80 0
v -160 -80 0
v -160 -64 0
v -144 -64 0
v -128 -80 0
v -144 -80 0
v -144 -64 0
v -128 -64 0
v -112 -80 0
v -128 -80 0
v -128 -64 0
v -112 -64 0
v -96 -80 0
v -112 -80 0
v -112 -64 0
v -96 -64 0
v -192 -96 0
v -208 -96 0
v -208 -80 0
v -192 -80 0
v -176 -96 0
v -192 -96 0
v -192 -80 0
v -176 -80 0
v -160 -96 0
v -176 -96 0
v -176 -80 0
v -160 -80 0
v -192 -112 0
v -208 -112 0
v -208 -96 0
v -192 -96 0
v -176 -112 0
v -192 -112 0
v -192 -96 0
v -176 -96 0
v -160 -112 0
v -176 -112 0
v -176 -96 0
v -160 -96 0
v -192 -128 0
v -208 -128 0
v -208 -112 0
v -192 -112 0
v -176 -128 0
v -192 -128 0
v -192 -112 0
v -176 -112 0
v -160 -128 0
v -176 -128 0
v -176 -112 0
v -160 -112 0
v -192 -144 0
v -208 -144 0
v -208 -128 0
v -192 -128 0
v -176 -144 0
v -192 -144 0
v -192 -128 0
v -176 -128 0
v -160 -144 0
v -176 -144 0
v -176 -128 0
v -160 -128 0
v -192 -160 0
v -208 -160 0
v -208 -144 0
v -192 -144 0
v -176 -160 0
v -192 -160 0
v -192 -144 0
v -176 -144 0
v -160 -160 0
v -176 -160 0
v -176 -144 0
v -160 -144 0
v -368 -176 0
v -384 -176 0
v -384 -160 0
v -368 -160 0
v -352 -176 0
v -368 -176 0
v -368 -160 0
v -352 -160 0
v -192 -176 0
v -208 -176 0
v -208 -160 0
v -192 -160 0
v -176 -176 0
v -192 -176 0
v -192 -160 0
v -176 -160 0
v -160 -176 0
v -176 -176 0
v -176 -160 0
v -160 -160 0
v -368 -192 0
v -384 -192 0
v -384 -176 0
v -368 -176 0
v -352 -192 0
v -368 -192 0
v -368 -176 0
v -352 -176 0
v -192 -192 0
v -208 -192 0
v -208 -176 0
v -192 -176 0
v -176 -192 0
v -192 -192 0
v -192 -176 0
v -176 -176 0
v -160 -192 0
v -176 -192 0
v -176 -176 0
v -160 -176 0
v -368 -208 0
v -384 -208 0
v -384 -192 0
v -368 -192 0
v -352 -208 0
v -368 -208 0
v -368 -192 0
v -352 -192 0
v -192 -208 0
v -208 -208 0
v -208 -192 0
v -192 -192 0
v -176 -208 0
v -192 -208 0
v -192 -192 0
v -176 -192 0
v -160 -208 0
v -176 -208 0
v -176 -192 0
v -160 -192 0
v -368 -224 0
v -384 -224 0
v -384 -208 0
v -368 -208 0
v -352 -224 0
v -368 -224 0
v -368 -208 0
v -352 -208 0
v -192 -224 0
v -208 -224 0
v -208 -208 0
v -192 -208 0
v -176 -224 0
v -192 -224 0
v -192 -208 0
v -176 -208 0
v -160 -224 0
v -176 -224 0
v -176 -208 0
v -160 -208 0
v -224 -240 0
v -240 -240 0
v -240 -224 0
v -224 -224 0
v -208 -240 0
v -224 -240 0
v -224 -224 0
v -208 -224 0
v -192 -240 0
v -208 -240 0
v -208 -224 0
v -192 -224 0
v -176 -240 0
v -192 -240 0
v -192 -224 0
v -176 -224 0
v -160 -240 0
v -176 -240 0
v -176 -224 0
v -160 -224 0
v -144 -240 0
v -160 -240 0
v -160 -224 0
v -144 -224 0
v -128 -240 0
v -144 -240 0
v -144 -224 0
v -128 -224 0

# Texture cooridinates (Count = 68)
vt 0.2107438 0.743346
vt 0.2272727 0.743346
vt 0.2272727 0.7737643
vt 0.2107438 0.7737643
vt 0.1931818 0.743346
vt 0.2097107 0.743346
vt 0.2097107 0.7737643
vt 0.1931818 0.7737643
vt 0.1756198 0.743346
vt 0.1921488 0.743346
vt 0.1921488 0.7737643
vt 0.1756198 0.7737643
vt 0.2107438 0.7110266
vt 0.2272727 0.7110266
vt 0.2272727 0.7414448
vt 0.2107438 0.7414448
vt 0.1931818 0.7110266
vt 0.2097107 0.7110266
vt 0.2097107 0.7414448
vt 0.1931818 0.7414448
vt 0.1756198 0.7110266
vt 0.1921488 0.7110266
vt 0.1921488 0.7414448
vt 0.1756198 0.7414448
vt 0.2107438 0.6787072
vt 0.2272727 0.6787072
vt 0.2272727 0.7091255
vt 0.2107438 0.7091255
vt 0.1931818 0.6787072
vt 0.2097107 0.6787072
vt 0.2097107 0.7091255
vt 0.1931818 0.7091255
vt 0.1756198 0.6787072
vt 0.1921488 0.6787072
vt 0.1921488 0.7091255
vt 0.1756198 0.7091255
vt 0.2107438 0.2262357
vt 0.2272727 0.2262357
vt 0.2272727 0.256654
vt 0.2107438 0.256654
vt 0.1931818 0.2262357
vt 0.2097107 0.2262357
vt 0.2097107 0.256654
vt 0.1931818 0.256654
vt 0.1756198 0.2262357
vt 0.1921488 0.2262357
vt 0.1921488 0.256654
vt 0.1756198 0.256654
vt 0.1404959 0.5817491
vt 0.1570248 0.5817491
vt 0.1570248 0.6121673
vt 0.1404959 0.6121673
vt 0.1404959 0.6463878
vt 0.1570248 0.6463878
vt 0.1570248 0.6768061
vt 0.1404959 0.6768061
vt 0.2107438 0.2585551
vt 0.2272727 0.2585551
vt 0.2272727 0.2889734
vt 0.2107438 0.2889734
vt 0.1931818 0.2585551
vt 0.2097107 0.2585551
vt 0.2097107 0.2889734
vt 0.1931818 0.2889734
vt 0.1756198 0.2585551
vt 0.1921488 0.2585551
vt 0.1921488 0.2889734
vt 0.1756198 0.2889734

# Normal
vn 0 0 -1

# Mesh description
g Boss-Area_mesh_0002

# Faces
f 1/1/1 2/2/1 3/3/1 4/4/1
f 5/5/1 6/6/1 7/7/1 8/8/1
f 9/5/1 10/6/1 11/7/1 12/8/1
f 13/5/1 14/6/1 15/7/1 16/8/1
f 17/5/1 18/6/1 19/7/1 20/8/1
f 21/5/1 22/6/1 23/7/1 24/8/1
f 25/5/1 26/6/1 27/7/1 28/8/1
f 29/5/1 30/6/1 31/7/1 32/8/1
f 33/5/1 34/6/1 35/7/1 36/8/1
f 37/5/1 38/6/1 39/7/1 40/8/1
f 41/9/1 42/10/1 43/11/1 44/12/1
f 45/13/1 46/14/1 47/15/1 48/16/1
f 49/17/1 50/18/1 51/19/1 52/20/1
f 53/17/1 54/18/1 55/19/1 56/20/1
f 57/17/1 58/18/1 59/19/1 60/20/1
f 61/17/1 62/18/1 63/19/1 64/20/1
f 65/17/1 66/18/1 67/19/1 68/20/1
f 69/17/1 70/18/1 71/19/1 72/20/1
f 73/17/1 74/18/1 75/19/1 76/20/1
f 77/17/1 78/18/1 79/19/1 80/20/1
f 81/17/1 82/18/1 83/19/1 84/20/1
f 85/21/1 86/22/1 87/23/1 88/24/1
f 89/13/1 90/14/1 91/15/1 92/16/1
f 93/17/1 94/18/1 95/19/1 96/20/1
f 97/17/1 98/18/1 99/19/1 100/20/1
f 101/17/1 102/18/1 103/19/1 104/20/1
f 105/17/1 106/18/1 107/19/1 108/20/1
f 109/17/1 110/18/1 111/19/1 112/20/1
f 113/17/1 114/18/1 115/19/1 116/20/1
f 117/17/1 118/18/1 119/19/1 120/20/1
f 121/17/1 122/18/1 123/19/1 124/20/1
f 125/17/1 126/18/1 127/19/1 128/20/1
f 129/21/1 130/22/1 131/23/1 132/24/1
f 133/25/1 134/26/1 135/27/1 136/28/1
f 137/29/1 138/30/1 139/31/1 140/32/1
f 141/29/1 142/30/1 143/31/1 144/32/1
f 145/29/1 146/30/1 147/31/1 148/32/1
f 149/29/1 150/30/1 151/31/1 152/32/1
f 153/29/1 154/30/1 155/31/1 156/32/1
f 157/29/1 158/30/1 159/31/1 160/32/1
f 161/29/1 162/30/1 163/31/1 164/32/1
f 165/29/1 166/30/1 167/31/1 168/32/1
f 169/29/1 170/30/1 171/31/1 172/32/1
f 173/33/1 174/34/1 175/35/1 176/36/1
f 177/37/1 178/38/1 179/39/1 180/40/1
f 181/41/1 182/42/1 183/43/1 184/44/1
f 185/45/1 186/46/1 187/47/1 188/48/1
f 189/37/1 190/38/1 191/39/1 192/40/1
f 193/41/1 194/42/1 195/43/1 196/44/1
f 197/45/1 198/46/1 199/47/1 200/48/1
f 201/37/1 202/38/1 203/39/1 204/40/1
f 205/41/1 206/42/1 207/43/1 208/44/1
f 209/45/1 210/46/1 211/47/1 212/48/1
f 213/37/1 214/38/1 215/39/1 216/40/1
f 217/41/1 218/42/1 219/43/1 220/44/1
f 221/45/1 222/46/1 223/47/1 224/48/1
f 225/37/1 226/38/1 227/39/1 228/40/1
f 229/41/1 230/42/1 231/43/1 232/44/1
f 233/45/1 234/46/1 235/47/1 236/48/1
f 237/49/1 238/50/1 239/51/1 240/52/1
f 241/49/1 242/50/1 243/51/1 244/52/1
f 245/37/1 246/38/1 247/39/1 248/40/1
f 249/41/1 250/42/1 251/43/1 252/44/1
f 253/45/1 254/46/1 255/47/1 256/48/1
f 257/53/1 258/54/1 259/55/1 260/56/1
f 261/53/1 262/54/1 263/55/1 264/56/1
f 265/37/1 266/38/1 267/39/1 268/40/1
f 269/41/1 270/42/1 271/43/1 272/44/1
f 273/45/1 274/46/1 275/47/1 276/48/1
f 277/53/1 278/54/1 279/55/1 280/56/1
f 281/53/1 282/54/1 283/55/1 284/56/1
f 285/37/1 286/38/1 287/39/1 288/40/1
f 289/41/1 290/42/1 291/43/1 292/44/1
f 293/45/1 294/46/1 295/47/1 296/48/1
f 297/53/1 298/54/1 299/55/1 300/56/1
f 301/53/1 302/54/1 303/55/1 304/56/1
f 305/37/1 306/38/1 307/39/1 308/40/1
f 309/41/1 310/42/1 311/43/1 312/44/1
f 313/45/1 314/46/1 315/47/1 316/48/1
f 317/57/1 318/58/1 319/59/1 320/60/1
f 321/61/1 322/62/1 323/63/1 324/64/1
f 325/37/1 326/38/1 327/39/1 328/40/1
f 329/41/1 330/42/1 331/43/1 332/44/1
f 333/45/1 334/46/1 335/47/1 336/48/1
f 337/61/1 338/62/1 339/63/1 340/64/1
f 341/65/1 342/66/1 343/67/1 344/68/1

