# Tiled2Unity generated file. Do not modify by hand.
# Wavefront file for 'House-1-Main_mesh_0003.obj'

# Vertices (Count = 96)
v -224 -16 0
v -240 -16 0
v -240 0 0
v -224 0 0
v -160 -16 0
v -176 -16 0
v -176 0 0
v -160 0 0
v -144 -16 0
v -160 -16 0
v -160 0 0
v -144 0 0
v -96 -16 0
v -112 -16 0
v -112 0 0
v -96 0 0
v -80 -16 0
v -96 -16 0
v -96 0 0
v -80 0 0
v -64 -16 0
v -80 -16 0
v -80 0 0
v -64 0 0
v -48 -16 0
v -64 -16 0
v -64 0 0
v -48 0 0
v -32 -16 0
v -48 -16 0
v -48 0 0
v -32 0 0
v 0 -16 0
v -16 -16 0
v -16 0 0
v 0 0 0
v -224 -32 0
v -240 -32 0
v -240 -16 0
v -224 -16 0
v -96 -64 0
v -112 -64 0
v -112 -48 0
v -96 -48 0
v -80 -64 0
v -96 -64 0
v -96 -48 0
v -80 -48 0
v -64 -64 0
v -80 -64 0
v -80 -48 0
v -64 -48 0
v -112 -80 0
v -128 -80 0
v -128 -64 0
v -112 -64 0
v -96 -80 0
v -112 -80 0
v -112 -64 0
v -96 -64 0
v -80 -80 0
v -96 -80 0
v -96 -64 0
v -80 -64 0
v -64 -80 0
v -80 -80 0
v -80 -64 0
v -64 -64 0
v -48 -80 0
v -64 -80 0
v -64 -64 0
v -48 -64 0
v -96 -96 0
v -112 -96 0
v -112 -80 0
v -96 -80 0
v -80 -96 0
v -96 -96 0
v -96 -80 0
v -80 -80 0
v -64 -96 0
v -80 -96 0
v -80 -80 0
v -64 -80 0
v -224 -160 0
v -240 -160 0
v -240 -144 0
v -224 -144 0
v -80 -160 0
v -96 -160 0
v -96 -144 0
v -80 -144 0
v 0 -160 0
v -16 -160 0
v -16 -144 0
v 0 -144 0

# Texture cooridinates (Count = 64)
vt 0.3863636 0.8726236
vt 0.4028926 0.8726236
vt 0.4028926 0.9030418
vt 0.3863636 0.9030418
vt 0.7551653 0.5817491
vt 0.7716942 0.5817491
vt 0.7716942 0.6121673
vt 0.7551653 0.6121673
vt 0.7727273 0.5817491
vt 0.7892562 0.5817491
vt 0.7892562 0.6121673
vt 0.7727273 0.6121673
vt 0.4214876 0.7756654
vt 0.4380165 0.7756654
vt 0.4380165 0.8060837
vt 0.4214876 0.8060837
vt 0.5444215 0.9695817
vt 0.5609504 0.9695817
vt 0.5609504 1
vt 0.5444215 1
vt 0.5268595 0.9695817
vt 0.5433884 0.9695817
vt 0.5433884 1
vt 0.5268595 1
vt 0.4917355 0.9695817
vt 0.5082645 0.9695817
vt 0.5082645 1
vt 0.4917355 1
vt 0.2107438 0.9695817
vt 0.2272727 0.9695817
vt 0.2272727 1
vt 0.2107438 1
vt 0.5971074 0.3878327
vt 0.6136364 0.3878327
vt 0.6136364 0.418251
vt 0.5971074 0.418251
vt 0.3336777 0.904943
vt 0.3502066 0.904943
vt 0.3502066 0.9353612
vt 0.3336777 0.9353612
vt 0.4741735 0.8079848
vt 0.4907025 0.8079848
vt 0.4907025 0.838403
vt 0.4741735 0.838403
vt 0.4741735 0.8726236
vt 0.4907025 0.8726236
vt 0.4907025 0.9030418
vt 0.4741735 0.9030418
vt 0.4566116 0.8726236
vt 0.4731405 0.8726236
vt 0.4731405 0.9030418
vt 0.4566116 0.9030418
vt 0.3512397 0.904943
vt 0.3677686 0.904943
vt 0.3677686 0.9353612
vt 0.3512397 0.9353612
vt 0.2985537 0.7110266
vt 0.3150826 0.7110266
vt 0.3150826 0.7414448
vt 0.2985537 0.7414448
vt 0.3336777 0.03231937
vt 0.3502066 0.03231937
vt 0.3502066 0.06273764
vt 0.3336777 0.06273764

# Normal
vn 0 0 -1

# Mesh description
g House-1-Main_mesh_0003

# Faces
f 1/1/1 2/2/1 3/3/1 4/4/1
f 5/5/1 6/6/1 7/7/1 8/8/1
f 9/9/1 10/10/1 11/11/1 12/12/1
f 13/13/1 14/14/1 15/15/1 16/16/1
f 17/17/1 18/18/1 19/19/1 20/20/1
f 21/21/1 22/22/1 23/23/1 24/24/1
f 25/21/1 26/22/1 27/23/1 28/24/1
f 29/25/1 30/26/1 31/27/1 32/28/1
f 33/29/1 34/30/1 35/31/1 36/32/1
f 37/33/1 38/34/1 39/35/1 40/36/1
f 41/37/1 42/38/1 43/39/1 44/40/1
f 45/37/1 46/38/1 47/39/1 48/40/1
f 49/37/1 50/38/1 51/39/1 52/40/1
f 53/1/1 54/2/1 55/3/1 56/4/1
f 57/41/1 58/42/1 59/43/1 60/44/1
f 61/45/1 62/46/1 63/47/1 64/48/1
f 65/49/1 66/50/1 67/51/1 68/52/1
f 69/2/1 70/1/1 71/4/1 72/3/1
f 73/53/1 74/54/1 75/55/1 76/56/1
f 77/53/1 78/54/1 79/55/1 80/56/1
f 81/53/1 82/54/1 83/55/1 84/56/1
f 85/57/1 86/58/1 87/59/1 88/60/1
f 89/61/1 90/62/1 91/63/1 92/64/1
f 93/57/1 94/58/1 95/59/1 96/60/1

