# Tiled2Unity generated file. Do not modify by hand.
# Wavefront file for 'Main-Map_mesh_0006.obj'

# Vertices (Count = 24)
v -960 -752 0
v -976 -752 0
v -976 -736 0
v -960 -736 0
v -944 -752 0
v -960 -752 0
v -960 -736 0
v -944 -736 0
v -960 -768 0
v -976 -768 0
v -976 -752 0
v -960 -752 0
v -944 -768 0
v -960 -768 0
v -960 -752 0
v -944 -752 0
v -960 -784 0
v -976 -784 0
v -976 -768 0
v -960 -768 0
v -944 -784 0
v -960 -784 0
v -960 -768 0
v -944 -768 0

# Texture cooridinates (Count = 8)
vt 0.3161157 0.8726236
vt 0.3326446 0.8726236
vt 0.3326446 0.9030418
vt 0.3161157 0.9030418
vt 0.3161157 0.904943
vt 0.3326446 0.904943
vt 0.3326446 0.9353612
vt 0.3161157 0.9353612

# Normal
vn 0 0 -1

# Mesh description
g Main-Map_mesh_0006

# Faces
f 1/1/1 2/2/1 3/3/1 4/4/1
f 5/5/1 6/6/1 7/7/1 8/8/1
f 9/1/1 10/2/1 11/3/1 12/4/1
f 13/5/1 14/6/1 15/7/1 16/8/1
f 17/1/1 18/2/1 19/3/1 20/4/1
f 21/5/1 22/6/1 23/7/1 24/8/1

